<svg xmlns="http://www.w3.org/2000/svg" width="558.029" height="630.612" viewBox="0 0 558.029 630.612">
  <g id="undraw_secure_files_re_6vdh" transform="translate(-167 6.181)">
    <g id="Group_5" data-name="Group 5" transform="translate(167 -6.181)">
      <path id="Path_16" data-name="Path 16" d="M594.907,516.07,272.8,604.9,166.738,220.3l322.1-88.831Z" transform="translate(-166.738 -131.472)" fill="#fff"/>
      <path id="Path_17" data-name="Path 17" d="M594.907,516.07,272.8,604.9,166.738,220.3l322.1-88.831ZM276.92,597.651l310.738-85.7L484.726,138.721l-310.738,85.7Z" transform="translate(-166.738 -131.472)" fill="#f1f1f1"/>
      <path id="Path_18" data-name="Path 18" d="M418.744,303.765,338,326.032a4.46,4.46,0,0,1-5.479-3.11l-22.267-80.741a4.46,4.46,0,0,1,3.11-5.479l80.741-22.267a4.46,4.46,0,0,1,5.479,3.11l22.267,80.741A4.46,4.46,0,0,1,418.744,303.765Zm-104.9-65.345a2.676,2.676,0,0,0-1.866,3.288l22.267,80.741a2.676,2.676,0,0,0,3.288,1.866l80.741-22.267a2.676,2.676,0,0,0,1.866-3.288L397.87,218.019a2.676,2.676,0,0,0-3.288-1.866Z" transform="translate(-173.359 -131.472)" fill="#e5e5e5"/>
      <path id="Path_19" data-name="Path 19" d="M398.277,320.039l-80.741,22.267a4.014,4.014,0,0,1-4.931-2.8l-22.268-80.741a4.014,4.014,0,0,1,2.8-4.931l80.741-22.267a4.014,4.014,0,0,1,4.931,2.8l22.267,80.741a4.014,4.014,0,0,1-2.8,4.931Z" transform="translate(-166.738 -133.42)" fill="#005dff"/>
      <rect id="Rectangle_8" data-name="Rectangle 8" width="233.728" height="9.032" transform="translate(99.756 258.114) rotate(-15.418)" fill="#f1f1f1"/>
      <rect id="Rectangle_9" data-name="Rectangle 9" width="233.728" height="9.032" transform="translate(106.017 280.405) rotate(-15.418)" fill="#f1f1f1"/>
      <rect id="Rectangle_10" data-name="Rectangle 10" width="233.728" height="9.032" transform="translate(112.277 302.695) rotate(-15.418)" fill="#f1f1f1"/>
      <rect id="Rectangle_11" data-name="Rectangle 11" width="233.728" height="9.032" transform="translate(123.296 341.927) rotate(-15.418)" fill="#f1f1f1"/>
      <rect id="Rectangle_12" data-name="Rectangle 12" width="233.728" height="9.032" transform="translate(129.557 364.218) rotate(-15.418)" fill="#f1f1f1"/>
      <rect id="Rectangle_13" data-name="Rectangle 13" width="233.728" height="9.032" transform="translate(128.409 386.509) rotate(-15.418)" fill="#f1f1f1"/>
    </g>
    <g id="Group_3" data-name="Group 3" transform="translate(385.626 58.68)">
      <path id="Path_20" data-name="Path 20" d="M698.014,603.616H363.887V204.661H698.014Z" transform="translate(-363.887 -195.048)" fill="#fff"/>
      <rect id="Rectangle_14" data-name="Rectangle 14" width="191.034" height="9.032" transform="translate(80.749 177.123)" fill="#005dff"/>
      <rect id="Rectangle_15" data-name="Rectangle 15" width="191.034" height="9.032" transform="translate(80.749 200.223)" fill="#005dff"/>
      <rect id="Rectangle_16" data-name="Rectangle 16" width="191.034" height="9.032" transform="translate(80.749 223.322)" fill="#005dff"/>
      <circle id="Ellipse_3" data-name="Ellipse 3" cx="5.895" cy="5.895" r="5.895" transform="translate(63.22 177.051)" fill="#6c63ff"/>
      <rect id="Rectangle_17" data-name="Rectangle 17" width="191.034" height="9.032" transform="translate(80.749 77.586)" fill="#e5e5e5"/>
      <rect id="Rectangle_18" data-name="Rectangle 18" width="191.034" height="9.032" transform="translate(80.749 100.686)" fill="#e5e5e5"/>
      <rect id="Rectangle_19" data-name="Rectangle 19" width="191.034" height="9.032" transform="translate(80.749 123.786)" fill="#e5e5e5"/>
      <circle id="Ellipse_4" data-name="Ellipse 4" cx="5.895" cy="5.895" r="5.895" transform="translate(63.22 76.555)" fill="#e5e5e5"/>
      <rect id="Rectangle_20" data-name="Rectangle 20" width="191.034" height="9.032" transform="translate(80.749 277.627)" fill="#e5e5e5"/>
      <rect id="Rectangle_21" data-name="Rectangle 21" width="191.034" height="9.032" transform="translate(80.749 300.726)" fill="#e5e5e5"/>
      <rect id="Rectangle_22" data-name="Rectangle 22" width="191.034" height="9.032" transform="translate(80.749 323.826)" fill="#e5e5e5"/>
      <circle id="Ellipse_5" data-name="Ellipse 5" cx="5.895" cy="5.895" r="5.895" transform="translate(63.22 276.58)" fill="#e5e5e5"/>
      <path id="Path_21" data-name="Path 21" d="M698.014,603.616H363.887V204.661H698.014Zm-328.233-5.895H692.12V210.555H369.782Z" transform="translate(-358.612 -204.661)" fill="#e5e5e5"/>
    </g>
    <g id="Group_6" data-name="Group 6" transform="translate(212.169 552.091)">
      <path id="Path_1" data-name="Path 1" d="M971.738,768.528v-72.34S999.93,747.474,971.738,768.528Z" transform="translate(-650.26 -696.188)" fill="#f1f1f1"/>
      <path id="Path_2" data-name="Path 2" d="M973.48,768.515l-53.29-48.921S977.035,733.51,973.48,768.515Z" transform="translate(-650.26 -696.188)" fill="#f1f1f1"/>
      <path id="Path_24" data-name="Path 24" d="M1032.26,768.122h-381a1,1,0,0,1,0-2h381a1,1,0,0,1,0,2Z" transform="translate(-650.26 -696.188)" fill="#cbcbcb"/>
    </g>
    <g id="Group_2" data-name="Group 2" transform="translate(192.156 247.418)">
      <path id="Path_3" data-name="Path 3" d="M775.312,577.442a9.1,9.1,0,0,0-9.851-9.872l-9.607-18.431-12.624,3.106,13.932,25.838a9.145,9.145,0,0,0,18.15-.641Z" transform="translate(-629.873 -387.19)" fill="#ffb7b7"/>
      <path id="Path_4" data-name="Path 4" d="M618.152,625.527H628.8l5.068-41.089H618.15Z" transform="translate(-528.126 -258.839)" fill="#ffb7b7"/>
      <path id="Path_5" data-name="Path 5" d="M768.978,767.325h34.349v-.434a13.37,13.37,0,0,0-13.369-13.369H768.977Z" transform="translate(-681.968 -390.311)" fill="#2f2e41"/>
      <path id="Path_6" data-name="Path 6" d="M693.57,617.569l10.278,2.8,15.7-38.308-15.169-4.136Z" transform="translate(-678.134 -258.839)" fill="#ffb7b7"/>
      <path id="Path_7" data-name="Path 7" d="M857.9,758.288l33.139,9.037.114-.419a13.37,13.37,0,0,0-9.381-16.416h0l-20.24-5.52Z" transform="translate(-853.726 -390.311)" fill="#2f2e41"/>
      <path id="Path_8" data-name="Path 8" d="M714.207,448.033l5.314,80.694-11.415,90.534-18.7-5.707-.788-80.891-14.957-46.645L629.38,610.6l-20.271-7.479,16.729-80.891,9.447-75.97Z" transform="translate(-600.42 -258.839)" fill="#2f2e41"/>
      <path id="Path_9" data-name="Path 9" d="M810.106,437.806l31.486,4.643,11.343,11.218,3.522,40.307-2.187,35.7,9.119,62.959s-22.93-12.729-40.7,3.205-42.635,2.816-43.147-7.784Z" transform="translate(-749.852 -386.717)" fill="#cbcbcb"/>
      <path id="Path_10" data-name="Path 10" d="M866.579,488.357v-.045l-15.641-50.984-.2-.013c-1.113-.072-27.337-1.618-33.2,11.33l-.028.062,1.782,52.983-2.454,82.979,48.5,10.5.353.077Z" transform="translate(-789.444 -386.602)" fill="#2f2e41"/>
      <path id="Path_11" data-name="Path 11" d="M780.854,484.833l-2.869-43.221c20.407,1.269,20.1,15.738,20.076,16.369l.223,64.65,4.087,69.164-14.86-1.114Z" transform="translate(-689.821 -386.589)" fill="#2f2e41"/>
      <path id="Path_12" data-name="Path 12" d="M790.85,563.477,772.733,521.43l-12.646-23.221-6.6,41.889,22.922,34.383Z" transform="translate(-655.046 -386.763)" fill="#2f2e41"/>
      <path id="Path_13" data-name="Path 13" d="M866.232,548.006a9.1,9.1,0,0,0-12.325-6.526L839.291,526.7,828.145,533.4l20.934,20.578a9.145,9.145,0,0,0,17.154-5.967Z" transform="translate(-800.468 -386.759)" fill="#ffb7b7"/>
      <path id="Path_14" data-name="Path 14" d="M895.82,536.085l-29.8-32.692,19.726-28.149-2.03-13.762L872.088,447.12l-.227.293c-1.239,1.6-30.362,39.439-31.2,53.763-.839,14.376,41.021,50.742,42.8,52.282l.248.214Z" transform="translate(-840.651 -386.158)" fill="#2f2e41"/>
      <circle id="Ellipse_2" data-name="Ellipse 2" cx="21.181" cy="21.181" r="21.181" transform="translate(56.313 7.356)" fill="#ffb7b7"/>
      <path id="Path_15" data-name="Path 15" d="M797.028,396.15,796,394.083l5.167-2.567s5.7-9.274,16.014-6.668,14.955,4.166,14.955,4.166l5.154,2.593-2.587,2.574,4.64,1.56-3.1,1.54,3.607,2.073-1.942,10.628s-3.225-8.061-9.425-4.981-17.541-1.592-17.541-1.592l-9.853,19.069s-2.033-6.685-5.657-4.9C795.433,417.577,786.174,402.831,797.028,396.15Z" transform="translate(-739.326 -384.386)" fill="#2f2e41"/>
    </g>
    <g id="Group_4" data-name="Group 4" transform="translate(264.635 360.144)">
      <circle id="Ellipse_6" data-name="Ellipse 6" cx="68.293" cy="68.293" r="68.293" fill="#005dff"/>
      <path id="Path_22" data-name="Path 22" d="M701.336,565.32V552.253a18.921,18.921,0,0,0-37.842,0V565.32a9.838,9.838,0,0,0-9.4,9.823v30.879h56.633V575.144A9.838,9.838,0,0,0,701.336,565.32Zm-18.921-25.326a12.273,12.273,0,0,1,12.258,12.259V565.3H670.157V552.253a12.273,12.273,0,0,1,12.258-12.259Z" transform="translate(-613.733 -501.106)" fill="#fff"/>
      <path id="Path_23" data-name="Path 23" d="M687.506,580.569a5.091,5.091,0,1,0-7.954,4.207v11.065h5.726V584.776a5.084,5.084,0,0,0,2.228-4.207Z" transform="translate(-613.541 -501.187)" fill="#6c63ff"/>
    </g>
  </g>
</svg>
